<svg class="thumb" width="1024" height="350" viewBox="10,200,580,200" xmlns="http://www.w3.org/2000/svg" xmlns:inkscape="http://www.inkscape.org/namespaces/inkscape" xmlns:sodipodi="http://sodipodi.sourceforge.net/DTD/sodipodi-0.dtd" xmlns:xlink="http://www.w3.org/1999/xlink" xmlns:ns1="http://www.inkscape.org/namespaces/inkscape" xmlns:sketch="http://www.bohemiancoding.com/sketch/ns"><defs></defs><g transform="matrix(1.3074,0,0,1.3074,-36.4839,228.0884)"><g transform="matrix(1.0808,0,0,1.0808,45.4466,0.962)"><svg width="88.4503037" height="100" viewBox="6,0,88.4503037,100"><defs><linearGradient x1="0" y1="0.5" x2="1" y2="0.5" id="linearGradientSk9ux8wz04"><stop offset="0%" stop-color="#000000"></stop><stop offset="100%" stop-color="#d14b4b"></stop></linearGradient></defs><g></g><g><path d="M84.9793092,79.8511531 C84.9793092,85.7394528 80.1897565,90.5290056 74.3014568,90.5290056 L31.4559172,90.5290056 L27.428669,86.5956482 L27.8925347,86.5956482 L69.0256834,86.5956482 C75.6528149,86.5956482 81.0448341,81.2025112 81.0448341,74.5753797 L81.0448341,24.9540481 L82.3917212,24.9540481 C83.8179684,24.9540481 84.9793092,26.1153889 84.9793092,27.5427539 L84.9793092,79.8511531 Z M18.3369018,78.39808 L65.7898012,78.39808 C69.6818018,78.39808 72.8483836,75.2314982 72.8483836,71.3394975 L72.8483836,17.667445 L73.9873694,17.667445 C75.4136167,17.667445 76.5738397,18.8287858 76.5738397,20.255033 L76.5738397,74.5753797 C76.5738397,78.7378755 73.1870614,82.1246538 69.0256834,82.1246538 L23.0526832,82.1246538 L18.3369018,78.39808 Z M15.4709944,9.47099442 L65.7898012,9.47099442 C67.2160484,9.47099442 68.3773892,10.6312175 68.3773892,12.0585824 L68.3773892,71.3394975 C68.3773892,72.7668625 67.2160484,73.9270855 65.7898012,73.9270855 L15.4709944,73.9270855 L15.4709944,9.47099442 Z M82.3917212,20.4830537 L81.0448341,20.4830537 L81.0448341,20.255033 C81.0448341,16.3630323 77.8782523,13.1964505 73.9873694,13.1964505 L72.8483836,13.1964505 L72.8483836,12.0585824 C72.8483836,8.1665818 69.6818018,5 65.7898012,5 L11,5 L11,78.39808 L29.9044822,95 L74.3014568,95 C82.6543921,95 89.4503037,88.2040885 89.4503037,79.8511531 L89.4503037,27.5427539 C89.4503037,23.6496355 86.2837219,20.4830537 82.3917212,20.4830537 L82.3917212,20.4830537 Z" fill="url('#linearGradientSk9ux8wz04')" sketch:type="MSShapeGroup" fill-rule="evenodd" stroke="none" style=""></path></g></svg></g><g transform="matrix(0.5,0,0,0.5,155.723,33)"><svg width="623.1999999999999" height="160" style="overflow: visible;"><defs><linearGradient x1="0" y1="0.5" x2="1" y2="0.5" id="linearGradientSk9ux8wz0c"><stop offset="0%" stop-color="#3a3a3a"></stop><stop offset="100%" stop-color="#3a3a3a"></stop></linearGradient></defs><g transform="matrix(1,0,0,1,0,75)"><path d="M 48.9 0L 48.9 0L 10.5 0Q 8.6 0  7.75-0.85Q 6.9-1.7  6.9-3.6L 6.9-3.6L 6.9-68.4Q 6.9-70.3  7.75-71.15Q 8.6-72  10.5-72L 10.5-72L 42.4-72Q 52.2-72  56.9-68.25Q 61.6-64.5  61.6-56.7L 61.6-56.7L 61.6-51.9Q 61.6-47.7  60.15-45.05Q 58.7-42.4  55.7-41.1L 55.7-41.1Q 62.1-40.5  65.2-36.7Q 68.3-32.9  68.3-25.6L 68.3-25.6L 68.3-16.4Q 68.3-8  63.55-4Q 58.8 0  48.9 0ZM 37.9-55L 29.4-55L 29.4-44.2L 37.9-44.2Q 39.8-44.2  40.75-45.2Q 41.7-46.2  41.7-48.2L 41.7-48.2L 41.7-51Q 41.7-53  40.75-54Q 39.8-55  37.9-55L 37.9-55ZM 42.4-28.8L 29.4-28.8L 29.4-17L 42.4-17Q 44.3-17  45.25-18Q 46.2-19  46.2-21L 46.2-21L 46.2-24.9Q 46.2-26.9  45.25-27.85Q 44.3-28.8  42.4-28.8L 42.4-28.8ZM 97.90000000000003 0L 97.90000000000003 0L 83.00000000000003 0Q 81.10000000000002 0  80.25000000000003-0.85Q 79.40000000000003-1.7  79.40000000000003-3.6L 79.40000000000003-3.6L 79.40000000000003-68.4Q 79.40000000000003-70.3  80.25000000000003-71.15Q 81.10000000000002-72  83.00000000000003-72L 83.00000000000003-72L 99.10000000000002-72Q 100.70000000000003-72  101.75000000000003-71.3Q 102.80000000000003-70.6  103.70000000000003-69L 103.70000000000003-69L 112.70000000000003-52.7Q 113.20000000000003-51.8  113.55000000000003-51.4Q 113.90000000000003-51  114.50000000000003-51L 114.50000000000003-51L 115.40000000000003-51Q 116.00000000000003-51  116.35000000000002-51.4Q 116.70000000000003-51.8  117.20000000000003-52.7L 117.20000000000003-52.7L 126.10000000000002-69Q 127.00000000000003-70.6  128.05-71.3Q 129.10000000000002-72  130.70000000000005-72L 130.70000000000005-72L 146.90000000000003-72Q 148.8-72  149.65000000000003-71.15Q 150.50000000000003-70.3  150.50000000000003-68.4L 150.50000000000003-68.4L 150.50000000000003-3.6Q 150.50000000000003-1.7  149.65000000000003-0.85Q 148.8 0  146.90000000000003 0L 146.90000000000003 0L 131.50000000000003 0Q 129.60000000000002 0  128.75000000000003-0.85Q 127.90000000000003-1.7  127.90000000000003-3.6L 127.90000000000003-3.6L 127.90000000000003-38.8L 122.00000000000003-27.9Q 121.10000000000002-26.2  119.85000000000002-25.45Q 118.60000000000002-24.7  116.70000000000003-24.7L 116.70000000000003-24.7L 112.70000000000003-24.7Q 110.80000000000003-24.7  109.55000000000003-25.45Q 108.30000000000003-26.2  107.40000000000003-27.9L 107.40000000000003-27.9L 101.50000000000003-38.8L 101.50000000000003-3.6Q 101.50000000000003-1.7  100.65000000000003-0.85Q 99.80000000000003 0  97.90000000000003 0ZM 206.9000000000001 0L 206.9000000000001 0L 180.9000000000001 0Q 179.00000000000009 0  177.75000000000009-0.7Q 176.50000000000009-1.4  175.8000000000001-3.3L 175.8000000000001-3.3L 166.00000000000009-27.8Q 165.10000000000008-30  164.50000000000009-31.65Q 163.9000000000001-33.3  163.50000000000009-34.8Q 163.10000000000008-36.3  162.9500000000001-37.95Q 162.8000000000001-39.6  162.8000000000001-42L 162.8000000000001-42L 162.8000000000001-68.4Q 162.8000000000001-70.3  163.6500000000001-71.15Q 164.50000000000009-72  166.4000000000001-72L 166.4000000000001-72L 182.3000000000001-72Q 184.2000000000001-72  185.2000000000001-71.15Q 186.2000000000001-70.3  186.2000000000001-68.4L 186.2000000000001-68.4L 186.2000000000001-40.8Q 186.2000000000001-39.8  186.4000000000001-38.8Q 186.60000000000008-37.8  187.00000000000009-36.7L 187.00000000000009-36.7L 191.7000000000001-22.7Q 192.00000000000009-21.7  192.4000000000001-21.35Q 192.8000000000001-21  193.60000000000008-21L 193.60000000000008-21L 194.7000000000001-21Q 195.50000000000009-21  195.9000000000001-21.35Q 196.3000000000001-21.7  196.60000000000008-22.7L 196.60000000000008-22.7L 201.3000000000001-36.8Q 201.7000000000001-37.9  201.9000000000001-38.9Q 202.10000000000008-39.9  202.10000000000008-40.9L 202.10000000000008-40.9L 202.10000000000008-68.4Q 202.10000000000008-70.3  202.9500000000001-71.15Q 203.8000000000001-72  205.7000000000001-72L 205.7000000000001-72L 221.4000000000001-72Q 223.3000000000001-72  224.1500000000001-71.15Q 225.00000000000009-70.3  225.00000000000009-68.4L 225.00000000000009-68.4L 225.00000000000009-42Q 225.00000000000009-39.6  224.85000000000008-37.95Q 224.7000000000001-36.3  224.3000000000001-34.8Q 223.9000000000001-33.3  223.3000000000001-31.65Q 222.7000000000001-30  221.8000000000001-27.8L 221.8000000000001-27.8L 212.00000000000009-3.3Q 211.3000000000001-1.4  210.0500000000001-0.7Q 208.8000000000001 0  206.9000000000001 0ZM 281.9000000000001 0L 239.3000000000001 0Q 237.4000000000001 0  236.5500000000001-0.85Q 235.7000000000001-1.7  235.7000000000001-3.6L 235.7000000000001-3.6L 235.7000000000001-15.5Q 235.7000000000001-17.4  236.5500000000001-18.25Q 237.4000000000001-19.1  239.3000000000001-19.1L 239.3000000000001-19.1L 249.2000000000001-19.1L 249.2000000000001-52.7L 239.3000000000001-52.7Q 237.4000000000001-52.7  236.5500000000001-53.55Q 235.7000000000001-54.4  235.7000000000001-56.3L 235.7000000000001-56.3L 235.7000000000001-68.4Q 235.7000000000001-70.3  236.5500000000001-71.15Q 237.4000000000001-72  239.3000000000001-72L 239.3000000000001-72L 281.9000000000001-72Q 283.80000000000007-72  284.6500000000001-71.15Q 285.5000000000001-70.3  285.5000000000001-68.4L 285.5000000000001-68.4L 285.5000000000001-56.3Q 285.5000000000001-54.4  284.6500000000001-53.55Q 283.80000000000007-52.7  281.9000000000001-52.7L 281.9000000000001-52.7L 272.2000000000001-52.7L 272.2000000000001-19.1L 281.9000000000001-19.1Q 283.80000000000007-19.1  284.6500000000001-18.25Q 285.5000000000001-17.4  285.5000000000001-15.5L 285.5000000000001-15.5L 285.5000000000001-3.6Q 285.5000000000001-1.7  284.6500000000001-0.85Q 283.80000000000007 0  281.9000000000001 0L 281.9000000000001 0ZM 323.90000000000015-51L 323.90000000000015-51L 319.20000000000016-35.8L 334.90000000000015-35.8L 330.20000000000016-51Q 329.8000000000001-51.9  329.35000000000014-52.3Q 328.90000000000015-52.7  328.3000000000001-52.7L 328.3000000000001-52.7L 325.8000000000001-52.7Q 325.20000000000016-52.7  324.75000000000017-52.3Q 324.3000000000001-51.9  323.90000000000015-51ZM 318.20000000000016-17.6L 318.20000000000016-3.6Q 318.20000000000016-1.7  317.35000000000014-0.85Q 316.50000000000017 0  314.60000000000014 0L 314.60000000000014 0L 299.90000000000015 0Q 298.00000000000017 0  297.15000000000015-0.85Q 296.3000000000001-1.7  296.3000000000001-3.6L 296.3000000000001-3.6L 296.3000000000001-30Q 296.3000000000001-33  297.25000000000017-36.9Q 298.20000000000016-40.8  300.20000000000016-46L 300.20000000000016-46L 308.90000000000015-68.7Q 309.50000000000017-70.4  310.75000000000017-71.2Q 312.00000000000017-72  314.00000000000017-72L 314.00000000000017-72L 340.90000000000015-72Q 342.8000000000001-72  344.0500000000001-71.2Q 345.3000000000001-70.4  345.90000000000015-68.7L 345.90000000000015-68.7L 354.60000000000014-46Q 356.60000000000014-40.8  357.5500000000002-36.9Q 358.5000000000001-33  358.5000000000001-30L 358.5000000000001-30L 358.5000000000001-3.6Q 358.5000000000001-1.7  357.65000000000015-0.85Q 356.8000000000002 0  354.90000000000015 0L 354.90000000000015 0L 339.8000000000001 0Q 337.8000000000001 0  336.85000000000014-0.85Q 335.90000000000015-1.7  335.90000000000015-3.6L 335.90000000000015-3.6L 335.90000000000015-17.6L 318.20000000000016-17.6ZM 393.2000000000001 0L 393.2000000000001 0L 373.0000000000001 0Q 371.1000000000001 0  370.2500000000001-0.85Q 369.4000000000001-1.7  369.4000000000001-3.6L 369.4000000000001-3.6L 369.4000000000001-23.9Q 369.4000000000001-25.8  370.2500000000001-26.65Q 371.1000000000001-27.5  373.0000000000001-27.5L 373.0000000000001-27.5L 393.2000000000001-27.5Q 395.1000000000001-27.5  395.9500000000001-26.65Q 396.80000000000007-25.8  396.80000000000007-23.9L 396.80000000000007-23.9L 396.80000000000007-3.6Q 396.80000000000007-1.7  395.9500000000001-0.85Q 395.1000000000001 0  393.2000000000001 0ZM 457.1000000000001 0L 457.1000000000001 0L 432.70000000000005 0Q 420.20000000000005 0  414.1500000000001-5Q 408.1000000000001-10  408.1000000000001-20.4L 408.1000000000001-20.4L 408.1000000000001-51.5Q 408.1000000000001-61.9  414.1500000000001-66.95Q 420.20000000000005-72  432.70000000000005-72L 432.70000000000005-72L 457.1000000000001-72Q 459.00000000000006-72  459.8500000000001-71.15Q 460.70000000000005-70.3  460.70000000000005-68.4L 460.70000000000005-68.4L 460.70000000000005-56.3Q 460.70000000000005-54.4  459.8500000000001-53.55Q 459.00000000000006-52.7  457.1000000000001-52.7L 457.1000000000001-52.7L 437.00000000000006-52.7Q 433.9000000000001-52.7  432.4000000000001-51.45Q 430.9000000000001-50.2  430.9000000000001-47.7L 430.9000000000001-47.7L 430.9000000000001-23.9Q 430.9000000000001-21.4  432.4000000000001-20.25Q 433.9000000000001-19.1  437.00000000000006-19.1L 437.00000000000006-19.1L 457.1000000000001-19.1Q 459.00000000000006-19.1  459.8500000000001-18.25Q 460.70000000000005-17.4  460.70000000000005-15.5L 460.70000000000005-15.5L 460.70000000000005-3.6Q 460.70000000000005-1.7  459.8500000000001-0.85Q 459.00000000000006 0  457.1000000000001 0ZM 532.5000000000001-53L 532.5000000000001-18.9Q 532.5000000000001-14.3  531.1500000000001-10.55Q 529.8000000000001-6.8  526.3500000000001-4.15Q 522.9000000000001-1.5  516.8500000000001 0Q 510.80000000000007 1.5  501.50000000000006 1.5L 501.50000000000006 1.5Q 492.2000000000001 1.5  486.1000000000001 0Q 480.00000000000006-1.5  476.55000000000007-4.15Q 473.1000000000001-6.8  471.75000000000006-10.55Q 470.4000000000001-14.3  470.4000000000001-18.9L 470.4000000000001-18.9L 470.4000000000001-53Q 470.4000000000001-57.6  471.75000000000006-61.35Q 473.1000000000001-65.1  476.55000000000007-67.8Q 480.00000000000006-70.5  486.1000000000001-72Q 492.2000000000001-73.5  501.50000000000006-73.5L 501.50000000000006-73.5Q 510.80000000000007-73.5  516.8500000000001-72Q 522.9000000000001-70.5  526.3500000000001-67.8Q 529.8000000000001-65.1  531.1500000000001-61.35Q 532.5000000000001-57.6  532.5000000000001-53L 532.5000000000001-53ZM 493.1000000000001-49.4L 493.1000000000001-22.5Q 493.1000000000001-20.5  494.6000000000001-19.15Q 496.1000000000001-17.8  501.50000000000006-17.8L 501.50000000000006-17.8Q 506.9000000000001-17.8  508.4000000000001-19.15Q 509.9000000000001-20.5  509.9000000000001-22.5L 509.9000000000001-22.5L 509.9000000000001-49.4Q 509.9000000000001-51.3  508.4000000000001-52.65Q 506.9000000000001-54  501.50000000000006-54L 501.50000000000006-54Q 496.1000000000001-54  494.6000000000001-52.65Q 493.1000000000001-51.3  493.1000000000001-49.4L 493.1000000000001-49.4ZM 563.7000000000002 0L 563.7000000000002 0L 548.8000000000002 0Q 546.9000000000002 0  546.0500000000002-0.85Q 545.2000000000002-1.7  545.2000000000002-3.6L 545.2000000000002-3.6L 545.2000000000002-68.4Q 545.2000000000002-70.3  546.0500000000002-71.15Q 546.9000000000002-72  548.8000000000002-72L 548.8000000000002-72L 564.9000000000002-72Q 566.5000000000002-72  567.5500000000002-71.3Q 568.6000000000001-70.6  569.5000000000002-69L 569.5000000000002-69L 578.5000000000002-52.7Q 579.0000000000002-51.8  579.3500000000001-51.4Q 579.7000000000002-51  580.3000000000002-51L 580.3000000000002-51L 581.2000000000002-51Q 581.8000000000002-51  582.1500000000002-51.4Q 582.5000000000002-51.8  583.0000000000002-52.7L 583.0000000000002-52.7L 591.9000000000002-69Q 592.8000000000002-70.6  593.8500000000001-71.3Q 594.9000000000002-72  596.5000000000002-72L 596.5000000000002-72L 612.7000000000002-72Q 614.6000000000001-72  615.4500000000002-71.15Q 616.3000000000002-70.3  616.3000000000002-68.4L 616.3000000000002-68.4L 616.3000000000002-3.6Q 616.3000000000002-1.7  615.4500000000002-0.85Q 614.6000000000001 0  612.7000000000002 0L 612.7000000000002 0L 597.3000000000002 0Q 595.4000000000002 0  594.5500000000002-0.85Q 593.7000000000002-1.7  593.7000000000002-3.6L 593.7000000000002-3.6L 593.7000000000002-38.8L 587.8000000000002-27.9Q 586.9000000000002-26.2  585.6500000000002-25.45Q 584.4000000000002-24.7  582.5000000000002-24.7L 582.5000000000002-24.7L 578.5000000000002-24.7Q 576.6000000000001-24.7  575.3500000000001-25.45Q 574.1000000000001-26.2  573.2000000000002-27.9L 573.2000000000002-27.9L 567.3000000000002-38.8L 567.3000000000002-3.6Q 567.3000000000002-1.7  566.4500000000002-0.85Q 565.6000000000001 0  563.7000000000002 0Z" data-textpath="bmvia.com" data-text-anchor="middle" data-font-size="100" data-letterspacing="0" data-side="left" data-offset="0.5" data-dx="0" data-dy="0" data-xmlspace="preserve" data-href="" data-font="Bungee" data-font-src="/Content/clientfonts/bungee.woff" data-font-scale="contain" transform="translate(0,0)" data-x="0" data-y="0" fill="url('#linearGradientSk9ux8wz0c')"></path></g></svg></g></g></svg>